G04 #@! TF.FileFunction,Soldermask,Bot*
%FSLAX46Y46*%
G04 Gerber Fmt 4.6, Leading zero omitted, Abs format (unit mm)*
G04 Created by KiCad (PCBNEW 4.0.7-e2-6376~61~ubuntu18.04.1) date Thu Feb 13 11:23:38 2020*
%MOMM*%
%LPD*%
G01*
G04 APERTURE LIST*
%ADD10C,0.100000*%
%ADD11C,2.400000*%
%ADD12R,1.900000X1.650000*%
%ADD13R,1.650000X1.900000*%
%ADD14C,2.900000*%
%ADD15C,6.000000*%
G04 APERTURE END LIST*
D10*
D11*
X97000000Y-115500000D03*
X97000000Y-125700000D03*
X79000000Y-108000000D03*
X75000000Y-108000000D03*
D12*
X73250000Y-111000000D03*
X70750000Y-111000000D03*
D13*
X83000000Y-112250000D03*
X83000000Y-109750000D03*
D12*
X89250000Y-113000000D03*
X86750000Y-113000000D03*
X92250000Y-117000000D03*
X89750000Y-117000000D03*
X70750000Y-104000000D03*
X73250000Y-104000000D03*
X70750000Y-118000000D03*
X73250000Y-118000000D03*
X86750000Y-104000000D03*
X89250000Y-104000000D03*
D13*
X90000000Y-122250000D03*
X90000000Y-119750000D03*
D12*
X90750000Y-125000000D03*
X93250000Y-125000000D03*
X106750000Y-104000000D03*
X109250000Y-104000000D03*
D13*
X119000000Y-114250000D03*
X119000000Y-111750000D03*
X104000000Y-117250000D03*
X104000000Y-114750000D03*
D12*
X116250000Y-120000000D03*
X113750000Y-120000000D03*
X118250000Y-108000000D03*
X115750000Y-108000000D03*
D14*
X61760000Y-113440000D03*
X61760000Y-108360000D03*
X66840000Y-108360000D03*
X66840000Y-113440000D03*
X64300000Y-110900000D03*
X123160000Y-113440000D03*
X123160000Y-108360000D03*
X128240000Y-108360000D03*
X128240000Y-113440000D03*
X125700000Y-110900000D03*
D11*
X79000000Y-114000000D03*
X75000000Y-114000000D03*
X95200000Y-106600000D03*
X92700000Y-103500000D03*
X109500000Y-124000000D03*
X119700000Y-124000000D03*
X115699999Y-102200000D03*
X123000001Y-94999999D03*
D15*
X64000000Y-131000000D03*
X126000000Y-131000000D03*
X126000000Y-90800000D03*
X64000000Y-90800000D03*
M02*
