M48
;DRILL file {KiCad 4.0.7-e2-6376~61~ubuntu18.04.1} date Thu Feb 13 11:25:10 2020
;FORMAT={-:-/ absolute / inch / decimal}
FMAT,2
INCH,TZ
T1C0.035
T2C0.039
T3C0.063
T4C0.126
%
G90
G05
M72
T1
X2.9528Y-4.252
X2.9528Y-4.4882
X3.1102Y-4.252
X3.1102Y-4.4882
X3.6496Y-4.0748
X3.748Y-4.1969
X3.8189Y-4.5472
X3.8189Y-4.9488
X4.311Y-4.8819
X4.5551Y-4.0236
X4.7126Y-4.8819
X4.8425Y-3.7402
T2
X2.8504Y-3.5157
X2.8543Y-5.2165
X3.0512Y-3.5157
X3.0512Y-5.2165
X3.248Y-3.5157
X3.248Y-5.2165
X3.4449Y-3.5157
X3.4449Y-5.2165
X3.6417Y-3.5157
X3.6417Y-5.2165
X3.8386Y-3.5157
X3.8386Y-5.2165
X4.0354Y-3.5157
X4.0354Y-5.2165
X4.2323Y-3.5157
X4.2323Y-5.2165
X4.4291Y-3.5157
X4.4291Y-5.2165
X4.626Y-3.5157
X4.626Y-5.2165
T3
X2.4315Y-4.2661
X2.4315Y-4.4661
X2.5315Y-4.3661
X2.6315Y-4.2661
X2.6315Y-4.4661
X4.8488Y-4.2661
X4.8488Y-4.4661
X4.9488Y-4.3661
X5.0488Y-4.2661
X5.0488Y-4.4661
T4
X2.5197Y-3.5748
X2.5197Y-5.1575
X4.9606Y-3.5748
X4.9606Y-5.1575
T0
M30
