G04 #@! TF.FileFunction,Copper,L1,Top,Plane*
%FSLAX46Y46*%
G04 Gerber Fmt 4.6, Leading zero omitted, Abs format (unit mm)*
G04 Created by KiCad (PCBNEW 4.0.7-e2-6376~61~ubuntu18.04.1) date Thu Feb 13 11:23:38 2020*
%MOMM*%
%LPD*%
G01*
G04 APERTURE LIST*
%ADD10C,0.100000*%
%ADD11C,2.000000*%
%ADD12C,2.500000*%
%ADD13C,5.600000*%
%ADD14C,1.500000*%
%ADD15C,1.000000*%
G04 APERTURE END LIST*
D10*
D11*
X97000000Y-115500000D03*
X97000000Y-125700000D03*
X79000000Y-108000000D03*
X75000000Y-108000000D03*
D12*
X61760000Y-113440000D03*
X61760000Y-108360000D03*
X66840000Y-108360000D03*
X66840000Y-113440000D03*
X64300000Y-110900000D03*
X123160000Y-113440000D03*
X123160000Y-108360000D03*
X128240000Y-108360000D03*
X128240000Y-113440000D03*
X125700000Y-110900000D03*
D11*
X79000000Y-114000000D03*
X75000000Y-114000000D03*
X95200000Y-106600000D03*
X92700000Y-103500000D03*
X109500000Y-124000000D03*
X119700000Y-124000000D03*
X115699999Y-102200000D03*
X123000001Y-94999999D03*
D13*
X64000000Y-131000000D03*
X126000000Y-131000000D03*
X126000000Y-90800000D03*
X64000000Y-90800000D03*
D14*
X72400000Y-89300000D03*
X117500000Y-89300000D03*
X112500000Y-89300000D03*
X107500000Y-89300000D03*
X102500000Y-89300000D03*
X97500000Y-89300000D03*
X92500000Y-89300000D03*
X87500000Y-89300000D03*
X82500000Y-89300000D03*
X77500000Y-89300000D03*
X72500000Y-132500000D03*
X117500000Y-132500000D03*
X112500000Y-132500000D03*
X107500000Y-132500000D03*
X102500000Y-132500000D03*
X97500000Y-132500000D03*
X92500000Y-132500000D03*
X87500000Y-132500000D03*
X82500000Y-132500000D03*
X77500000Y-132500000D03*
D15*
X107500000Y-89300000D02*
X112500000Y-89300000D01*
X97500000Y-89300000D02*
X102500000Y-89300000D01*
X87500000Y-89300000D02*
X92500000Y-89300000D01*
X77500000Y-89300000D02*
X82500000Y-89300000D01*
X107500000Y-132500000D02*
X112500000Y-132500000D01*
X97500000Y-132500000D02*
X102500000Y-132500000D01*
X87500000Y-132500000D02*
X92500000Y-132500000D01*
X77500000Y-132500000D02*
X82500000Y-132500000D01*
D10*
G36*
X129367000Y-107521499D02*
X128528500Y-108360000D01*
X129367000Y-109198501D01*
X129367000Y-112601499D01*
X128528500Y-113440000D01*
X129367000Y-114278501D01*
X129367000Y-134367000D01*
X60633000Y-134367000D01*
X60633000Y-133294149D01*
X61994350Y-133294149D01*
X62341109Y-133630333D01*
X63473969Y-134064940D01*
X64686913Y-134032939D01*
X65658891Y-133630333D01*
X66005650Y-133294149D01*
X123994350Y-133294149D01*
X124341109Y-133630333D01*
X125473969Y-134064940D01*
X126686913Y-134032939D01*
X127658891Y-133630333D01*
X128005650Y-133294149D01*
X126000000Y-131288500D01*
X123994350Y-133294149D01*
X66005650Y-133294149D01*
X64000000Y-131288500D01*
X61994350Y-133294149D01*
X60633000Y-133294149D01*
X60633000Y-130473969D01*
X60935060Y-130473969D01*
X60967061Y-131686913D01*
X61369667Y-132658891D01*
X61705851Y-133005650D01*
X63711500Y-131000000D01*
X64288500Y-131000000D01*
X66294149Y-133005650D01*
X66630333Y-132658891D01*
X67064940Y-131526031D01*
X67037184Y-130473969D01*
X122935060Y-130473969D01*
X122967061Y-131686913D01*
X123369667Y-132658891D01*
X123705851Y-133005650D01*
X125711500Y-131000000D01*
X126288500Y-131000000D01*
X128294149Y-133005650D01*
X128630333Y-132658891D01*
X129064940Y-131526031D01*
X129032939Y-130313087D01*
X128630333Y-129341109D01*
X128294149Y-128994350D01*
X126288500Y-131000000D01*
X125711500Y-131000000D01*
X123705851Y-128994350D01*
X123369667Y-129341109D01*
X122935060Y-130473969D01*
X67037184Y-130473969D01*
X67032939Y-130313087D01*
X66630333Y-129341109D01*
X66294149Y-128994350D01*
X64288500Y-131000000D01*
X63711500Y-131000000D01*
X61705851Y-128994350D01*
X61369667Y-129341109D01*
X60935060Y-130473969D01*
X60633000Y-130473969D01*
X60633000Y-128705851D01*
X61994350Y-128705851D01*
X64000000Y-130711500D01*
X66005650Y-128705851D01*
X123994350Y-128705851D01*
X126000000Y-130711500D01*
X128005650Y-128705851D01*
X127658891Y-128369667D01*
X126526031Y-127935060D01*
X125313087Y-127967061D01*
X124341109Y-128369667D01*
X123994350Y-128705851D01*
X66005650Y-128705851D01*
X65658891Y-128369667D01*
X64526031Y-127935060D01*
X63313087Y-127967061D01*
X62341109Y-128369667D01*
X61994350Y-128705851D01*
X60633000Y-128705851D01*
X60633000Y-126008546D01*
X95441730Y-126008546D01*
X95678422Y-126581383D01*
X96116312Y-127020038D01*
X96688735Y-127257729D01*
X97308546Y-127258270D01*
X97881383Y-127021578D01*
X98320038Y-126583688D01*
X98557729Y-126011265D01*
X98558270Y-125391454D01*
X98321578Y-124818617D01*
X97883688Y-124379962D01*
X97711700Y-124308546D01*
X107941730Y-124308546D01*
X108178422Y-124881383D01*
X108616312Y-125320038D01*
X109188735Y-125557729D01*
X109808546Y-125558270D01*
X110381383Y-125321578D01*
X110820038Y-124883688D01*
X111057729Y-124311265D01*
X111057731Y-124308546D01*
X118141730Y-124308546D01*
X118378422Y-124881383D01*
X118816312Y-125320038D01*
X119388735Y-125557729D01*
X120008546Y-125558270D01*
X120581383Y-125321578D01*
X121020038Y-124883688D01*
X121257729Y-124311265D01*
X121258270Y-123691454D01*
X121021578Y-123118617D01*
X120583688Y-122679962D01*
X120011265Y-122442271D01*
X119391454Y-122441730D01*
X118818617Y-122678422D01*
X118379962Y-123116312D01*
X118142271Y-123688735D01*
X118141730Y-124308546D01*
X111057731Y-124308546D01*
X111058270Y-123691454D01*
X110821578Y-123118617D01*
X110383688Y-122679962D01*
X109811265Y-122442271D01*
X109191454Y-122441730D01*
X108618617Y-122678422D01*
X108179962Y-123116312D01*
X107942271Y-123688735D01*
X107941730Y-124308546D01*
X97711700Y-124308546D01*
X97311265Y-124142271D01*
X96691454Y-124141730D01*
X96118617Y-124378422D01*
X95679962Y-124816312D01*
X95442271Y-125388735D01*
X95441730Y-126008546D01*
X60633000Y-126008546D01*
X60633000Y-115808546D01*
X95441730Y-115808546D01*
X95678422Y-116381383D01*
X96116312Y-116820038D01*
X96688735Y-117057729D01*
X97308546Y-117058270D01*
X97881383Y-116821578D01*
X98320038Y-116383688D01*
X98557729Y-115811265D01*
X98558270Y-115191454D01*
X98321578Y-114618617D01*
X98314390Y-114611416D01*
X122277083Y-114611416D01*
X122434122Y-114786151D01*
X123004526Y-114961463D01*
X123598599Y-114905146D01*
X123885878Y-114786151D01*
X124042917Y-114611416D01*
X127357083Y-114611416D01*
X127514122Y-114786151D01*
X128084526Y-114961463D01*
X128678599Y-114905146D01*
X128965878Y-114786151D01*
X129122917Y-114611416D01*
X128240000Y-113728500D01*
X127357083Y-114611416D01*
X124042917Y-114611416D01*
X123160000Y-113728500D01*
X122277083Y-114611416D01*
X98314390Y-114611416D01*
X97883688Y-114179962D01*
X97311265Y-113942271D01*
X96691454Y-113941730D01*
X96118617Y-114178422D01*
X95679962Y-114616312D01*
X95442271Y-115188735D01*
X95441730Y-115808546D01*
X60633000Y-115808546D01*
X60633000Y-114611416D01*
X60877083Y-114611416D01*
X61034122Y-114786151D01*
X61604526Y-114961463D01*
X62198599Y-114905146D01*
X62485878Y-114786151D01*
X62642917Y-114611416D01*
X65957083Y-114611416D01*
X66114122Y-114786151D01*
X66684526Y-114961463D01*
X67278599Y-114905146D01*
X67565878Y-114786151D01*
X67722917Y-114611416D01*
X66840000Y-113728500D01*
X65957083Y-114611416D01*
X62642917Y-114611416D01*
X61760000Y-113728500D01*
X60877083Y-114611416D01*
X60633000Y-114611416D01*
X60633000Y-114278501D01*
X61471500Y-113440000D01*
X62048500Y-113440000D01*
X62931416Y-114322917D01*
X63106151Y-114165878D01*
X63281463Y-113595474D01*
X63251986Y-113284526D01*
X65318537Y-113284526D01*
X65374854Y-113878599D01*
X65493849Y-114165878D01*
X65668584Y-114322917D01*
X66551500Y-113440000D01*
X67128500Y-113440000D01*
X68011416Y-114322917D01*
X68027406Y-114308546D01*
X73441730Y-114308546D01*
X73678422Y-114881383D01*
X74116312Y-115320038D01*
X74688735Y-115557729D01*
X75308546Y-115558270D01*
X75881383Y-115321578D01*
X76320038Y-114883688D01*
X76557729Y-114311265D01*
X76557731Y-114308546D01*
X77441730Y-114308546D01*
X77678422Y-114881383D01*
X78116312Y-115320038D01*
X78688735Y-115557729D01*
X79308546Y-115558270D01*
X79881383Y-115321578D01*
X80320038Y-114883688D01*
X80557729Y-114311265D01*
X80558270Y-113691454D01*
X80390131Y-113284526D01*
X121638537Y-113284526D01*
X121694854Y-113878599D01*
X121813849Y-114165878D01*
X121988584Y-114322917D01*
X122871500Y-113440000D01*
X123448500Y-113440000D01*
X124331416Y-114322917D01*
X124506151Y-114165878D01*
X124681463Y-113595474D01*
X124651986Y-113284526D01*
X126718537Y-113284526D01*
X126774854Y-113878599D01*
X126893849Y-114165878D01*
X127068584Y-114322917D01*
X127951500Y-113440000D01*
X127068584Y-112557083D01*
X126893849Y-112714122D01*
X126718537Y-113284526D01*
X124651986Y-113284526D01*
X124625146Y-113001401D01*
X124506151Y-112714122D01*
X124331416Y-112557083D01*
X123448500Y-113440000D01*
X122871500Y-113440000D01*
X121988584Y-112557083D01*
X121813849Y-112714122D01*
X121638537Y-113284526D01*
X80390131Y-113284526D01*
X80321578Y-113118617D01*
X79883688Y-112679962D01*
X79311265Y-112442271D01*
X78691454Y-112441730D01*
X78118617Y-112678422D01*
X77679962Y-113116312D01*
X77442271Y-113688735D01*
X77441730Y-114308546D01*
X76557731Y-114308546D01*
X76558270Y-113691454D01*
X76321578Y-113118617D01*
X75883688Y-112679962D01*
X75311265Y-112442271D01*
X74691454Y-112441730D01*
X74118617Y-112678422D01*
X73679962Y-113116312D01*
X73442271Y-113688735D01*
X73441730Y-114308546D01*
X68027406Y-114308546D01*
X68186151Y-114165878D01*
X68361463Y-113595474D01*
X68305146Y-113001401D01*
X68186151Y-112714122D01*
X68011416Y-112557083D01*
X67128500Y-113440000D01*
X66551500Y-113440000D01*
X65668584Y-112557083D01*
X65493849Y-112714122D01*
X65318537Y-113284526D01*
X63251986Y-113284526D01*
X63225146Y-113001401D01*
X63106151Y-112714122D01*
X62931416Y-112557083D01*
X62048500Y-113440000D01*
X61471500Y-113440000D01*
X60633000Y-112601499D01*
X60633000Y-112268584D01*
X60877083Y-112268584D01*
X61760000Y-113151500D01*
X62642917Y-112268584D01*
X62485878Y-112093849D01*
X61915474Y-111918537D01*
X61321401Y-111974854D01*
X61034122Y-112093849D01*
X60877083Y-112268584D01*
X60633000Y-112268584D01*
X60633000Y-111258056D01*
X62491687Y-111258056D01*
X62766358Y-111922812D01*
X63274513Y-112431854D01*
X63938789Y-112707686D01*
X64658056Y-112708313D01*
X65322812Y-112433642D01*
X65488158Y-112268584D01*
X65957083Y-112268584D01*
X66840000Y-113151500D01*
X67722917Y-112268584D01*
X122277083Y-112268584D01*
X123160000Y-113151500D01*
X124042917Y-112268584D01*
X123885878Y-112093849D01*
X123315474Y-111918537D01*
X122721401Y-111974854D01*
X122434122Y-112093849D01*
X122277083Y-112268584D01*
X67722917Y-112268584D01*
X67565878Y-112093849D01*
X66995474Y-111918537D01*
X66401401Y-111974854D01*
X66114122Y-112093849D01*
X65957083Y-112268584D01*
X65488158Y-112268584D01*
X65831854Y-111925487D01*
X66107686Y-111261211D01*
X66107688Y-111258056D01*
X123891687Y-111258056D01*
X124166358Y-111922812D01*
X124674513Y-112431854D01*
X125338789Y-112707686D01*
X126058056Y-112708313D01*
X126722812Y-112433642D01*
X126888158Y-112268584D01*
X127357083Y-112268584D01*
X128240000Y-113151500D01*
X129122917Y-112268584D01*
X128965878Y-112093849D01*
X128395474Y-111918537D01*
X127801401Y-111974854D01*
X127514122Y-112093849D01*
X127357083Y-112268584D01*
X126888158Y-112268584D01*
X127231854Y-111925487D01*
X127507686Y-111261211D01*
X127508313Y-110541944D01*
X127233642Y-109877188D01*
X126888473Y-109531416D01*
X127357083Y-109531416D01*
X127514122Y-109706151D01*
X128084526Y-109881463D01*
X128678599Y-109825146D01*
X128965878Y-109706151D01*
X129122917Y-109531416D01*
X128240000Y-108648500D01*
X127357083Y-109531416D01*
X126888473Y-109531416D01*
X126725487Y-109368146D01*
X126061211Y-109092314D01*
X125341944Y-109091687D01*
X124677188Y-109366358D01*
X124168146Y-109874513D01*
X123892314Y-110538789D01*
X123891687Y-111258056D01*
X66107688Y-111258056D01*
X66108313Y-110541944D01*
X65833642Y-109877188D01*
X65488473Y-109531416D01*
X65957083Y-109531416D01*
X66114122Y-109706151D01*
X66684526Y-109881463D01*
X67278599Y-109825146D01*
X67565878Y-109706151D01*
X67722917Y-109531416D01*
X66840000Y-108648500D01*
X65957083Y-109531416D01*
X65488473Y-109531416D01*
X65325487Y-109368146D01*
X64661211Y-109092314D01*
X63941944Y-109091687D01*
X63277188Y-109366358D01*
X62768146Y-109874513D01*
X62492314Y-110538789D01*
X62491687Y-111258056D01*
X60633000Y-111258056D01*
X60633000Y-109531416D01*
X60877083Y-109531416D01*
X61034122Y-109706151D01*
X61604526Y-109881463D01*
X62198599Y-109825146D01*
X62485878Y-109706151D01*
X62642917Y-109531416D01*
X61760000Y-108648500D01*
X60877083Y-109531416D01*
X60633000Y-109531416D01*
X60633000Y-109198501D01*
X61471500Y-108360000D01*
X62048500Y-108360000D01*
X62931416Y-109242917D01*
X63106151Y-109085878D01*
X63281463Y-108515474D01*
X63251986Y-108204526D01*
X65318537Y-108204526D01*
X65374854Y-108798599D01*
X65493849Y-109085878D01*
X65668584Y-109242917D01*
X66551500Y-108360000D01*
X67128500Y-108360000D01*
X68011416Y-109242917D01*
X68186151Y-109085878D01*
X68361463Y-108515474D01*
X68341847Y-108308546D01*
X73441730Y-108308546D01*
X73678422Y-108881383D01*
X74116312Y-109320038D01*
X74688735Y-109557729D01*
X75308546Y-109558270D01*
X75881383Y-109321578D01*
X76320038Y-108883688D01*
X76557729Y-108311265D01*
X76557731Y-108308546D01*
X77441730Y-108308546D01*
X77678422Y-108881383D01*
X78116312Y-109320038D01*
X78688735Y-109557729D01*
X79308546Y-109558270D01*
X79373537Y-109531416D01*
X122277083Y-109531416D01*
X122434122Y-109706151D01*
X123004526Y-109881463D01*
X123598599Y-109825146D01*
X123885878Y-109706151D01*
X124042917Y-109531416D01*
X123160000Y-108648500D01*
X122277083Y-109531416D01*
X79373537Y-109531416D01*
X79881383Y-109321578D01*
X80320038Y-108883688D01*
X80557729Y-108311265D01*
X80557822Y-108204526D01*
X121638537Y-108204526D01*
X121694854Y-108798599D01*
X121813849Y-109085878D01*
X121988584Y-109242917D01*
X122871500Y-108360000D01*
X123448500Y-108360000D01*
X124331416Y-109242917D01*
X124506151Y-109085878D01*
X124681463Y-108515474D01*
X124651986Y-108204526D01*
X126718537Y-108204526D01*
X126774854Y-108798599D01*
X126893849Y-109085878D01*
X127068584Y-109242917D01*
X127951500Y-108360000D01*
X127068584Y-107477083D01*
X126893849Y-107634122D01*
X126718537Y-108204526D01*
X124651986Y-108204526D01*
X124625146Y-107921401D01*
X124506151Y-107634122D01*
X124331416Y-107477083D01*
X123448500Y-108360000D01*
X122871500Y-108360000D01*
X121988584Y-107477083D01*
X121813849Y-107634122D01*
X121638537Y-108204526D01*
X80557822Y-108204526D01*
X80558270Y-107691454D01*
X80321578Y-107118617D01*
X80111874Y-106908546D01*
X93641730Y-106908546D01*
X93878422Y-107481383D01*
X94316312Y-107920038D01*
X94888735Y-108157729D01*
X95508546Y-108158270D01*
X96081383Y-107921578D01*
X96520038Y-107483688D01*
X96642575Y-107188584D01*
X122277083Y-107188584D01*
X123160000Y-108071500D01*
X124042917Y-107188584D01*
X127357083Y-107188584D01*
X128240000Y-108071500D01*
X129122917Y-107188584D01*
X128965878Y-107013849D01*
X128395474Y-106838537D01*
X127801401Y-106894854D01*
X127514122Y-107013849D01*
X127357083Y-107188584D01*
X124042917Y-107188584D01*
X123885878Y-107013849D01*
X123315474Y-106838537D01*
X122721401Y-106894854D01*
X122434122Y-107013849D01*
X122277083Y-107188584D01*
X96642575Y-107188584D01*
X96757729Y-106911265D01*
X96758270Y-106291454D01*
X96521578Y-105718617D01*
X96083688Y-105279962D01*
X95511265Y-105042271D01*
X94891454Y-105041730D01*
X94318617Y-105278422D01*
X93879962Y-105716312D01*
X93642271Y-106288735D01*
X93641730Y-106908546D01*
X80111874Y-106908546D01*
X79883688Y-106679962D01*
X79311265Y-106442271D01*
X78691454Y-106441730D01*
X78118617Y-106678422D01*
X77679962Y-107116312D01*
X77442271Y-107688735D01*
X77441730Y-108308546D01*
X76557731Y-108308546D01*
X76558270Y-107691454D01*
X76321578Y-107118617D01*
X75883688Y-106679962D01*
X75311265Y-106442271D01*
X74691454Y-106441730D01*
X74118617Y-106678422D01*
X73679962Y-107116312D01*
X73442271Y-107688735D01*
X73441730Y-108308546D01*
X68341847Y-108308546D01*
X68305146Y-107921401D01*
X68186151Y-107634122D01*
X68011416Y-107477083D01*
X67128500Y-108360000D01*
X66551500Y-108360000D01*
X65668584Y-107477083D01*
X65493849Y-107634122D01*
X65318537Y-108204526D01*
X63251986Y-108204526D01*
X63225146Y-107921401D01*
X63106151Y-107634122D01*
X62931416Y-107477083D01*
X62048500Y-108360000D01*
X61471500Y-108360000D01*
X60633000Y-107521499D01*
X60633000Y-107188584D01*
X60877083Y-107188584D01*
X61760000Y-108071500D01*
X62642917Y-107188584D01*
X65957083Y-107188584D01*
X66840000Y-108071500D01*
X67722917Y-107188584D01*
X67565878Y-107013849D01*
X66995474Y-106838537D01*
X66401401Y-106894854D01*
X66114122Y-107013849D01*
X65957083Y-107188584D01*
X62642917Y-107188584D01*
X62485878Y-107013849D01*
X61915474Y-106838537D01*
X61321401Y-106894854D01*
X61034122Y-107013849D01*
X60877083Y-107188584D01*
X60633000Y-107188584D01*
X60633000Y-103808546D01*
X91141730Y-103808546D01*
X91378422Y-104381383D01*
X91816312Y-104820038D01*
X92388735Y-105057729D01*
X93008546Y-105058270D01*
X93581383Y-104821578D01*
X94020038Y-104383688D01*
X94257729Y-103811265D01*
X94258270Y-103191454D01*
X94021578Y-102618617D01*
X93911699Y-102508546D01*
X114141729Y-102508546D01*
X114378421Y-103081383D01*
X114816311Y-103520038D01*
X115388734Y-103757729D01*
X116008545Y-103758270D01*
X116581382Y-103521578D01*
X117020037Y-103083688D01*
X117257728Y-102511265D01*
X117258269Y-101891454D01*
X117021577Y-101318617D01*
X116583687Y-100879962D01*
X116011264Y-100642271D01*
X115391453Y-100641730D01*
X114818616Y-100878422D01*
X114379961Y-101316312D01*
X114142270Y-101888735D01*
X114141729Y-102508546D01*
X93911699Y-102508546D01*
X93583688Y-102179962D01*
X93011265Y-101942271D01*
X92391454Y-101941730D01*
X91818617Y-102178422D01*
X91379962Y-102616312D01*
X91142271Y-103188735D01*
X91141730Y-103808546D01*
X60633000Y-103808546D01*
X60633000Y-95308545D01*
X121441731Y-95308545D01*
X121678423Y-95881382D01*
X122116313Y-96320037D01*
X122688736Y-96557728D01*
X123308547Y-96558269D01*
X123881384Y-96321577D01*
X124320039Y-95883687D01*
X124557730Y-95311264D01*
X124558271Y-94691453D01*
X124321579Y-94118616D01*
X123883689Y-93679961D01*
X123311266Y-93442270D01*
X122691455Y-93441729D01*
X122118618Y-93678421D01*
X121679963Y-94116311D01*
X121442272Y-94688734D01*
X121441731Y-95308545D01*
X60633000Y-95308545D01*
X60633000Y-93094149D01*
X61994350Y-93094149D01*
X62341109Y-93430333D01*
X63473969Y-93864940D01*
X64686913Y-93832939D01*
X65658891Y-93430333D01*
X66005650Y-93094149D01*
X123994350Y-93094149D01*
X124341109Y-93430333D01*
X125473969Y-93864940D01*
X126686913Y-93832939D01*
X127658891Y-93430333D01*
X128005650Y-93094149D01*
X126000000Y-91088500D01*
X123994350Y-93094149D01*
X66005650Y-93094149D01*
X64000000Y-91088500D01*
X61994350Y-93094149D01*
X60633000Y-93094149D01*
X60633000Y-90273969D01*
X60935060Y-90273969D01*
X60967061Y-91486913D01*
X61369667Y-92458891D01*
X61705851Y-92805650D01*
X63711500Y-90800000D01*
X64288500Y-90800000D01*
X66294149Y-92805650D01*
X66630333Y-92458891D01*
X67064940Y-91326031D01*
X67037184Y-90273969D01*
X122935060Y-90273969D01*
X122967061Y-91486913D01*
X123369667Y-92458891D01*
X123705851Y-92805650D01*
X125711500Y-90800000D01*
X126288500Y-90800000D01*
X128294149Y-92805650D01*
X128630333Y-92458891D01*
X129064940Y-91326031D01*
X129032939Y-90113087D01*
X128630333Y-89141109D01*
X128294149Y-88794350D01*
X126288500Y-90800000D01*
X125711500Y-90800000D01*
X123705851Y-88794350D01*
X123369667Y-89141109D01*
X122935060Y-90273969D01*
X67037184Y-90273969D01*
X67032939Y-90113087D01*
X66630333Y-89141109D01*
X66294149Y-88794350D01*
X64288500Y-90800000D01*
X63711500Y-90800000D01*
X61705851Y-88794350D01*
X61369667Y-89141109D01*
X60935060Y-90273969D01*
X60633000Y-90273969D01*
X60633000Y-88505851D01*
X61994350Y-88505851D01*
X64000000Y-90511500D01*
X66005650Y-88505851D01*
X123994350Y-88505851D01*
X126000000Y-90511500D01*
X128005650Y-88505851D01*
X127658891Y-88169667D01*
X126526031Y-87735060D01*
X125313087Y-87767061D01*
X124341109Y-88169667D01*
X123994350Y-88505851D01*
X66005650Y-88505851D01*
X65658891Y-88169667D01*
X64526031Y-87735060D01*
X63313087Y-87767061D01*
X62341109Y-88169667D01*
X61994350Y-88505851D01*
X60633000Y-88505851D01*
X60633000Y-87433000D01*
X129367000Y-87433000D01*
X129367000Y-107521499D01*
X129367000Y-107521499D01*
G37*
X129367000Y-107521499D02*
X128528500Y-108360000D01*
X129367000Y-109198501D01*
X129367000Y-112601499D01*
X128528500Y-113440000D01*
X129367000Y-114278501D01*
X129367000Y-134367000D01*
X60633000Y-134367000D01*
X60633000Y-133294149D01*
X61994350Y-133294149D01*
X62341109Y-133630333D01*
X63473969Y-134064940D01*
X64686913Y-134032939D01*
X65658891Y-133630333D01*
X66005650Y-133294149D01*
X123994350Y-133294149D01*
X124341109Y-133630333D01*
X125473969Y-134064940D01*
X126686913Y-134032939D01*
X127658891Y-133630333D01*
X128005650Y-133294149D01*
X126000000Y-131288500D01*
X123994350Y-133294149D01*
X66005650Y-133294149D01*
X64000000Y-131288500D01*
X61994350Y-133294149D01*
X60633000Y-133294149D01*
X60633000Y-130473969D01*
X60935060Y-130473969D01*
X60967061Y-131686913D01*
X61369667Y-132658891D01*
X61705851Y-133005650D01*
X63711500Y-131000000D01*
X64288500Y-131000000D01*
X66294149Y-133005650D01*
X66630333Y-132658891D01*
X67064940Y-131526031D01*
X67037184Y-130473969D01*
X122935060Y-130473969D01*
X122967061Y-131686913D01*
X123369667Y-132658891D01*
X123705851Y-133005650D01*
X125711500Y-131000000D01*
X126288500Y-131000000D01*
X128294149Y-133005650D01*
X128630333Y-132658891D01*
X129064940Y-131526031D01*
X129032939Y-130313087D01*
X128630333Y-129341109D01*
X128294149Y-128994350D01*
X126288500Y-131000000D01*
X125711500Y-131000000D01*
X123705851Y-128994350D01*
X123369667Y-129341109D01*
X122935060Y-130473969D01*
X67037184Y-130473969D01*
X67032939Y-130313087D01*
X66630333Y-129341109D01*
X66294149Y-128994350D01*
X64288500Y-131000000D01*
X63711500Y-131000000D01*
X61705851Y-128994350D01*
X61369667Y-129341109D01*
X60935060Y-130473969D01*
X60633000Y-130473969D01*
X60633000Y-128705851D01*
X61994350Y-128705851D01*
X64000000Y-130711500D01*
X66005650Y-128705851D01*
X123994350Y-128705851D01*
X126000000Y-130711500D01*
X128005650Y-128705851D01*
X127658891Y-128369667D01*
X126526031Y-127935060D01*
X125313087Y-127967061D01*
X124341109Y-128369667D01*
X123994350Y-128705851D01*
X66005650Y-128705851D01*
X65658891Y-128369667D01*
X64526031Y-127935060D01*
X63313087Y-127967061D01*
X62341109Y-128369667D01*
X61994350Y-128705851D01*
X60633000Y-128705851D01*
X60633000Y-126008546D01*
X95441730Y-126008546D01*
X95678422Y-126581383D01*
X96116312Y-127020038D01*
X96688735Y-127257729D01*
X97308546Y-127258270D01*
X97881383Y-127021578D01*
X98320038Y-126583688D01*
X98557729Y-126011265D01*
X98558270Y-125391454D01*
X98321578Y-124818617D01*
X97883688Y-124379962D01*
X97711700Y-124308546D01*
X107941730Y-124308546D01*
X108178422Y-124881383D01*
X108616312Y-125320038D01*
X109188735Y-125557729D01*
X109808546Y-125558270D01*
X110381383Y-125321578D01*
X110820038Y-124883688D01*
X111057729Y-124311265D01*
X111057731Y-124308546D01*
X118141730Y-124308546D01*
X118378422Y-124881383D01*
X118816312Y-125320038D01*
X119388735Y-125557729D01*
X120008546Y-125558270D01*
X120581383Y-125321578D01*
X121020038Y-124883688D01*
X121257729Y-124311265D01*
X121258270Y-123691454D01*
X121021578Y-123118617D01*
X120583688Y-122679962D01*
X120011265Y-122442271D01*
X119391454Y-122441730D01*
X118818617Y-122678422D01*
X118379962Y-123116312D01*
X118142271Y-123688735D01*
X118141730Y-124308546D01*
X111057731Y-124308546D01*
X111058270Y-123691454D01*
X110821578Y-123118617D01*
X110383688Y-122679962D01*
X109811265Y-122442271D01*
X109191454Y-122441730D01*
X108618617Y-122678422D01*
X108179962Y-123116312D01*
X107942271Y-123688735D01*
X107941730Y-124308546D01*
X97711700Y-124308546D01*
X97311265Y-124142271D01*
X96691454Y-124141730D01*
X96118617Y-124378422D01*
X95679962Y-124816312D01*
X95442271Y-125388735D01*
X95441730Y-126008546D01*
X60633000Y-126008546D01*
X60633000Y-115808546D01*
X95441730Y-115808546D01*
X95678422Y-116381383D01*
X96116312Y-116820038D01*
X96688735Y-117057729D01*
X97308546Y-117058270D01*
X97881383Y-116821578D01*
X98320038Y-116383688D01*
X98557729Y-115811265D01*
X98558270Y-115191454D01*
X98321578Y-114618617D01*
X98314390Y-114611416D01*
X122277083Y-114611416D01*
X122434122Y-114786151D01*
X123004526Y-114961463D01*
X123598599Y-114905146D01*
X123885878Y-114786151D01*
X124042917Y-114611416D01*
X127357083Y-114611416D01*
X127514122Y-114786151D01*
X128084526Y-114961463D01*
X128678599Y-114905146D01*
X128965878Y-114786151D01*
X129122917Y-114611416D01*
X128240000Y-113728500D01*
X127357083Y-114611416D01*
X124042917Y-114611416D01*
X123160000Y-113728500D01*
X122277083Y-114611416D01*
X98314390Y-114611416D01*
X97883688Y-114179962D01*
X97311265Y-113942271D01*
X96691454Y-113941730D01*
X96118617Y-114178422D01*
X95679962Y-114616312D01*
X95442271Y-115188735D01*
X95441730Y-115808546D01*
X60633000Y-115808546D01*
X60633000Y-114611416D01*
X60877083Y-114611416D01*
X61034122Y-114786151D01*
X61604526Y-114961463D01*
X62198599Y-114905146D01*
X62485878Y-114786151D01*
X62642917Y-114611416D01*
X65957083Y-114611416D01*
X66114122Y-114786151D01*
X66684526Y-114961463D01*
X67278599Y-114905146D01*
X67565878Y-114786151D01*
X67722917Y-114611416D01*
X66840000Y-113728500D01*
X65957083Y-114611416D01*
X62642917Y-114611416D01*
X61760000Y-113728500D01*
X60877083Y-114611416D01*
X60633000Y-114611416D01*
X60633000Y-114278501D01*
X61471500Y-113440000D01*
X62048500Y-113440000D01*
X62931416Y-114322917D01*
X63106151Y-114165878D01*
X63281463Y-113595474D01*
X63251986Y-113284526D01*
X65318537Y-113284526D01*
X65374854Y-113878599D01*
X65493849Y-114165878D01*
X65668584Y-114322917D01*
X66551500Y-113440000D01*
X67128500Y-113440000D01*
X68011416Y-114322917D01*
X68027406Y-114308546D01*
X73441730Y-114308546D01*
X73678422Y-114881383D01*
X74116312Y-115320038D01*
X74688735Y-115557729D01*
X75308546Y-115558270D01*
X75881383Y-115321578D01*
X76320038Y-114883688D01*
X76557729Y-114311265D01*
X76557731Y-114308546D01*
X77441730Y-114308546D01*
X77678422Y-114881383D01*
X78116312Y-115320038D01*
X78688735Y-115557729D01*
X79308546Y-115558270D01*
X79881383Y-115321578D01*
X80320038Y-114883688D01*
X80557729Y-114311265D01*
X80558270Y-113691454D01*
X80390131Y-113284526D01*
X121638537Y-113284526D01*
X121694854Y-113878599D01*
X121813849Y-114165878D01*
X121988584Y-114322917D01*
X122871500Y-113440000D01*
X123448500Y-113440000D01*
X124331416Y-114322917D01*
X124506151Y-114165878D01*
X124681463Y-113595474D01*
X124651986Y-113284526D01*
X126718537Y-113284526D01*
X126774854Y-113878599D01*
X126893849Y-114165878D01*
X127068584Y-114322917D01*
X127951500Y-113440000D01*
X127068584Y-112557083D01*
X126893849Y-112714122D01*
X126718537Y-113284526D01*
X124651986Y-113284526D01*
X124625146Y-113001401D01*
X124506151Y-112714122D01*
X124331416Y-112557083D01*
X123448500Y-113440000D01*
X122871500Y-113440000D01*
X121988584Y-112557083D01*
X121813849Y-112714122D01*
X121638537Y-113284526D01*
X80390131Y-113284526D01*
X80321578Y-113118617D01*
X79883688Y-112679962D01*
X79311265Y-112442271D01*
X78691454Y-112441730D01*
X78118617Y-112678422D01*
X77679962Y-113116312D01*
X77442271Y-113688735D01*
X77441730Y-114308546D01*
X76557731Y-114308546D01*
X76558270Y-113691454D01*
X76321578Y-113118617D01*
X75883688Y-112679962D01*
X75311265Y-112442271D01*
X74691454Y-112441730D01*
X74118617Y-112678422D01*
X73679962Y-113116312D01*
X73442271Y-113688735D01*
X73441730Y-114308546D01*
X68027406Y-114308546D01*
X68186151Y-114165878D01*
X68361463Y-113595474D01*
X68305146Y-113001401D01*
X68186151Y-112714122D01*
X68011416Y-112557083D01*
X67128500Y-113440000D01*
X66551500Y-113440000D01*
X65668584Y-112557083D01*
X65493849Y-112714122D01*
X65318537Y-113284526D01*
X63251986Y-113284526D01*
X63225146Y-113001401D01*
X63106151Y-112714122D01*
X62931416Y-112557083D01*
X62048500Y-113440000D01*
X61471500Y-113440000D01*
X60633000Y-112601499D01*
X60633000Y-112268584D01*
X60877083Y-112268584D01*
X61760000Y-113151500D01*
X62642917Y-112268584D01*
X62485878Y-112093849D01*
X61915474Y-111918537D01*
X61321401Y-111974854D01*
X61034122Y-112093849D01*
X60877083Y-112268584D01*
X60633000Y-112268584D01*
X60633000Y-111258056D01*
X62491687Y-111258056D01*
X62766358Y-111922812D01*
X63274513Y-112431854D01*
X63938789Y-112707686D01*
X64658056Y-112708313D01*
X65322812Y-112433642D01*
X65488158Y-112268584D01*
X65957083Y-112268584D01*
X66840000Y-113151500D01*
X67722917Y-112268584D01*
X122277083Y-112268584D01*
X123160000Y-113151500D01*
X124042917Y-112268584D01*
X123885878Y-112093849D01*
X123315474Y-111918537D01*
X122721401Y-111974854D01*
X122434122Y-112093849D01*
X122277083Y-112268584D01*
X67722917Y-112268584D01*
X67565878Y-112093849D01*
X66995474Y-111918537D01*
X66401401Y-111974854D01*
X66114122Y-112093849D01*
X65957083Y-112268584D01*
X65488158Y-112268584D01*
X65831854Y-111925487D01*
X66107686Y-111261211D01*
X66107688Y-111258056D01*
X123891687Y-111258056D01*
X124166358Y-111922812D01*
X124674513Y-112431854D01*
X125338789Y-112707686D01*
X126058056Y-112708313D01*
X126722812Y-112433642D01*
X126888158Y-112268584D01*
X127357083Y-112268584D01*
X128240000Y-113151500D01*
X129122917Y-112268584D01*
X128965878Y-112093849D01*
X128395474Y-111918537D01*
X127801401Y-111974854D01*
X127514122Y-112093849D01*
X127357083Y-112268584D01*
X126888158Y-112268584D01*
X127231854Y-111925487D01*
X127507686Y-111261211D01*
X127508313Y-110541944D01*
X127233642Y-109877188D01*
X126888473Y-109531416D01*
X127357083Y-109531416D01*
X127514122Y-109706151D01*
X128084526Y-109881463D01*
X128678599Y-109825146D01*
X128965878Y-109706151D01*
X129122917Y-109531416D01*
X128240000Y-108648500D01*
X127357083Y-109531416D01*
X126888473Y-109531416D01*
X126725487Y-109368146D01*
X126061211Y-109092314D01*
X125341944Y-109091687D01*
X124677188Y-109366358D01*
X124168146Y-109874513D01*
X123892314Y-110538789D01*
X123891687Y-111258056D01*
X66107688Y-111258056D01*
X66108313Y-110541944D01*
X65833642Y-109877188D01*
X65488473Y-109531416D01*
X65957083Y-109531416D01*
X66114122Y-109706151D01*
X66684526Y-109881463D01*
X67278599Y-109825146D01*
X67565878Y-109706151D01*
X67722917Y-109531416D01*
X66840000Y-108648500D01*
X65957083Y-109531416D01*
X65488473Y-109531416D01*
X65325487Y-109368146D01*
X64661211Y-109092314D01*
X63941944Y-109091687D01*
X63277188Y-109366358D01*
X62768146Y-109874513D01*
X62492314Y-110538789D01*
X62491687Y-111258056D01*
X60633000Y-111258056D01*
X60633000Y-109531416D01*
X60877083Y-109531416D01*
X61034122Y-109706151D01*
X61604526Y-109881463D01*
X62198599Y-109825146D01*
X62485878Y-109706151D01*
X62642917Y-109531416D01*
X61760000Y-108648500D01*
X60877083Y-109531416D01*
X60633000Y-109531416D01*
X60633000Y-109198501D01*
X61471500Y-108360000D01*
X62048500Y-108360000D01*
X62931416Y-109242917D01*
X63106151Y-109085878D01*
X63281463Y-108515474D01*
X63251986Y-108204526D01*
X65318537Y-108204526D01*
X65374854Y-108798599D01*
X65493849Y-109085878D01*
X65668584Y-109242917D01*
X66551500Y-108360000D01*
X67128500Y-108360000D01*
X68011416Y-109242917D01*
X68186151Y-109085878D01*
X68361463Y-108515474D01*
X68341847Y-108308546D01*
X73441730Y-108308546D01*
X73678422Y-108881383D01*
X74116312Y-109320038D01*
X74688735Y-109557729D01*
X75308546Y-109558270D01*
X75881383Y-109321578D01*
X76320038Y-108883688D01*
X76557729Y-108311265D01*
X76557731Y-108308546D01*
X77441730Y-108308546D01*
X77678422Y-108881383D01*
X78116312Y-109320038D01*
X78688735Y-109557729D01*
X79308546Y-109558270D01*
X79373537Y-109531416D01*
X122277083Y-109531416D01*
X122434122Y-109706151D01*
X123004526Y-109881463D01*
X123598599Y-109825146D01*
X123885878Y-109706151D01*
X124042917Y-109531416D01*
X123160000Y-108648500D01*
X122277083Y-109531416D01*
X79373537Y-109531416D01*
X79881383Y-109321578D01*
X80320038Y-108883688D01*
X80557729Y-108311265D01*
X80557822Y-108204526D01*
X121638537Y-108204526D01*
X121694854Y-108798599D01*
X121813849Y-109085878D01*
X121988584Y-109242917D01*
X122871500Y-108360000D01*
X123448500Y-108360000D01*
X124331416Y-109242917D01*
X124506151Y-109085878D01*
X124681463Y-108515474D01*
X124651986Y-108204526D01*
X126718537Y-108204526D01*
X126774854Y-108798599D01*
X126893849Y-109085878D01*
X127068584Y-109242917D01*
X127951500Y-108360000D01*
X127068584Y-107477083D01*
X126893849Y-107634122D01*
X126718537Y-108204526D01*
X124651986Y-108204526D01*
X124625146Y-107921401D01*
X124506151Y-107634122D01*
X124331416Y-107477083D01*
X123448500Y-108360000D01*
X122871500Y-108360000D01*
X121988584Y-107477083D01*
X121813849Y-107634122D01*
X121638537Y-108204526D01*
X80557822Y-108204526D01*
X80558270Y-107691454D01*
X80321578Y-107118617D01*
X80111874Y-106908546D01*
X93641730Y-106908546D01*
X93878422Y-107481383D01*
X94316312Y-107920038D01*
X94888735Y-108157729D01*
X95508546Y-108158270D01*
X96081383Y-107921578D01*
X96520038Y-107483688D01*
X96642575Y-107188584D01*
X122277083Y-107188584D01*
X123160000Y-108071500D01*
X124042917Y-107188584D01*
X127357083Y-107188584D01*
X128240000Y-108071500D01*
X129122917Y-107188584D01*
X128965878Y-107013849D01*
X128395474Y-106838537D01*
X127801401Y-106894854D01*
X127514122Y-107013849D01*
X127357083Y-107188584D01*
X124042917Y-107188584D01*
X123885878Y-107013849D01*
X123315474Y-106838537D01*
X122721401Y-106894854D01*
X122434122Y-107013849D01*
X122277083Y-107188584D01*
X96642575Y-107188584D01*
X96757729Y-106911265D01*
X96758270Y-106291454D01*
X96521578Y-105718617D01*
X96083688Y-105279962D01*
X95511265Y-105042271D01*
X94891454Y-105041730D01*
X94318617Y-105278422D01*
X93879962Y-105716312D01*
X93642271Y-106288735D01*
X93641730Y-106908546D01*
X80111874Y-106908546D01*
X79883688Y-106679962D01*
X79311265Y-106442271D01*
X78691454Y-106441730D01*
X78118617Y-106678422D01*
X77679962Y-107116312D01*
X77442271Y-107688735D01*
X77441730Y-108308546D01*
X76557731Y-108308546D01*
X76558270Y-107691454D01*
X76321578Y-107118617D01*
X75883688Y-106679962D01*
X75311265Y-106442271D01*
X74691454Y-106441730D01*
X74118617Y-106678422D01*
X73679962Y-107116312D01*
X73442271Y-107688735D01*
X73441730Y-108308546D01*
X68341847Y-108308546D01*
X68305146Y-107921401D01*
X68186151Y-107634122D01*
X68011416Y-107477083D01*
X67128500Y-108360000D01*
X66551500Y-108360000D01*
X65668584Y-107477083D01*
X65493849Y-107634122D01*
X65318537Y-108204526D01*
X63251986Y-108204526D01*
X63225146Y-107921401D01*
X63106151Y-107634122D01*
X62931416Y-107477083D01*
X62048500Y-108360000D01*
X61471500Y-108360000D01*
X60633000Y-107521499D01*
X60633000Y-107188584D01*
X60877083Y-107188584D01*
X61760000Y-108071500D01*
X62642917Y-107188584D01*
X65957083Y-107188584D01*
X66840000Y-108071500D01*
X67722917Y-107188584D01*
X67565878Y-107013849D01*
X66995474Y-106838537D01*
X66401401Y-106894854D01*
X66114122Y-107013849D01*
X65957083Y-107188584D01*
X62642917Y-107188584D01*
X62485878Y-107013849D01*
X61915474Y-106838537D01*
X61321401Y-106894854D01*
X61034122Y-107013849D01*
X60877083Y-107188584D01*
X60633000Y-107188584D01*
X60633000Y-103808546D01*
X91141730Y-103808546D01*
X91378422Y-104381383D01*
X91816312Y-104820038D01*
X92388735Y-105057729D01*
X93008546Y-105058270D01*
X93581383Y-104821578D01*
X94020038Y-104383688D01*
X94257729Y-103811265D01*
X94258270Y-103191454D01*
X94021578Y-102618617D01*
X93911699Y-102508546D01*
X114141729Y-102508546D01*
X114378421Y-103081383D01*
X114816311Y-103520038D01*
X115388734Y-103757729D01*
X116008545Y-103758270D01*
X116581382Y-103521578D01*
X117020037Y-103083688D01*
X117257728Y-102511265D01*
X117258269Y-101891454D01*
X117021577Y-101318617D01*
X116583687Y-100879962D01*
X116011264Y-100642271D01*
X115391453Y-100641730D01*
X114818616Y-100878422D01*
X114379961Y-101316312D01*
X114142270Y-101888735D01*
X114141729Y-102508546D01*
X93911699Y-102508546D01*
X93583688Y-102179962D01*
X93011265Y-101942271D01*
X92391454Y-101941730D01*
X91818617Y-102178422D01*
X91379962Y-102616312D01*
X91142271Y-103188735D01*
X91141730Y-103808546D01*
X60633000Y-103808546D01*
X60633000Y-95308545D01*
X121441731Y-95308545D01*
X121678423Y-95881382D01*
X122116313Y-96320037D01*
X122688736Y-96557728D01*
X123308547Y-96558269D01*
X123881384Y-96321577D01*
X124320039Y-95883687D01*
X124557730Y-95311264D01*
X124558271Y-94691453D01*
X124321579Y-94118616D01*
X123883689Y-93679961D01*
X123311266Y-93442270D01*
X122691455Y-93441729D01*
X122118618Y-93678421D01*
X121679963Y-94116311D01*
X121442272Y-94688734D01*
X121441731Y-95308545D01*
X60633000Y-95308545D01*
X60633000Y-93094149D01*
X61994350Y-93094149D01*
X62341109Y-93430333D01*
X63473969Y-93864940D01*
X64686913Y-93832939D01*
X65658891Y-93430333D01*
X66005650Y-93094149D01*
X123994350Y-93094149D01*
X124341109Y-93430333D01*
X125473969Y-93864940D01*
X126686913Y-93832939D01*
X127658891Y-93430333D01*
X128005650Y-93094149D01*
X126000000Y-91088500D01*
X123994350Y-93094149D01*
X66005650Y-93094149D01*
X64000000Y-91088500D01*
X61994350Y-93094149D01*
X60633000Y-93094149D01*
X60633000Y-90273969D01*
X60935060Y-90273969D01*
X60967061Y-91486913D01*
X61369667Y-92458891D01*
X61705851Y-92805650D01*
X63711500Y-90800000D01*
X64288500Y-90800000D01*
X66294149Y-92805650D01*
X66630333Y-92458891D01*
X67064940Y-91326031D01*
X67037184Y-90273969D01*
X122935060Y-90273969D01*
X122967061Y-91486913D01*
X123369667Y-92458891D01*
X123705851Y-92805650D01*
X125711500Y-90800000D01*
X126288500Y-90800000D01*
X128294149Y-92805650D01*
X128630333Y-92458891D01*
X129064940Y-91326031D01*
X129032939Y-90113087D01*
X128630333Y-89141109D01*
X128294149Y-88794350D01*
X126288500Y-90800000D01*
X125711500Y-90800000D01*
X123705851Y-88794350D01*
X123369667Y-89141109D01*
X122935060Y-90273969D01*
X67037184Y-90273969D01*
X67032939Y-90113087D01*
X66630333Y-89141109D01*
X66294149Y-88794350D01*
X64288500Y-90800000D01*
X63711500Y-90800000D01*
X61705851Y-88794350D01*
X61369667Y-89141109D01*
X60935060Y-90273969D01*
X60633000Y-90273969D01*
X60633000Y-88505851D01*
X61994350Y-88505851D01*
X64000000Y-90511500D01*
X66005650Y-88505851D01*
X123994350Y-88505851D01*
X126000000Y-90511500D01*
X128005650Y-88505851D01*
X127658891Y-88169667D01*
X126526031Y-87735060D01*
X125313087Y-87767061D01*
X124341109Y-88169667D01*
X123994350Y-88505851D01*
X66005650Y-88505851D01*
X65658891Y-88169667D01*
X64526031Y-87735060D01*
X63313087Y-87767061D01*
X62341109Y-88169667D01*
X61994350Y-88505851D01*
X60633000Y-88505851D01*
X60633000Y-87433000D01*
X129367000Y-87433000D01*
X129367000Y-107521499D01*
M02*
